<?xml version="1.0" encoding="utf-8"?>
<!-- Generator: Adobe Illustrator 23.0.2, SVG Export Plug-In . SVG Version: 6.00 Build 0)  -->
<svg version="1.1" id="Ebene_1" xmlns="http://www.w3.org/2000/svg" xmlns:xlink="http://www.w3.org/1999/xlink" x="0px" y="0px"
	 viewBox="0 0 1024 1024" style="enable-background:new 0 0 1024 1024;" xml:space="preserve">
<style type="text/css">
	.st0{fill:#F9BD2B;}
</style>
<title>Home Config</title>
<path class="st0" d="M832.7,0H191.3C86.1,0,0,86.1,0,191.3v641.4C0,937.9,86.1,1024,191.3,1024h641.4
	c105.2,0,191.3-86.1,191.3-191.3V191.3C1024,86.1,937.9,0,832.7,0z M858.8,494.4c-2.6,12.2-10.8,19.3-22.8,21.6
	c-11.5,2.2-23-1.8-26.8-11.9c-10.6-28-33.7-45-53.8-64.2c-18.1-17.3-27-36.1-25.1-60.9c1.2-15.7,0.2-31.5,0.2-47.2c0,0-0.1,0-0.1,0
	c0-21-0.1-42,0-63c0.1-19-11.9-22.6-27.5-22.2c-15.7,0.3-33.7-2.7-34.8,20.9c-0.9,19-0.2,38-0.7,57.1c-0.2,6.3,3.2,15.2-3,18.2
	c-7,3.5-10.6-5.7-15.1-9.9C607.2,293.4,565,254.1,523.6,214c-12.8-12.4-22.3-12.1-34.7,0.3c-91.2,91.6-182.7,182.9-274.5,273.9
	c-12,11.9-13.6,21.4-0.2,32.4c3,2.5,5.6,5.5,8.4,8.3c18,17.7,20.8,17.2,40.1-0.5c59.9-55.1,116.3-113.7,174.5-170.6
	c12.2-11.9,25.1-23,37.6-34.7c23.4-21.9,50.3-22.6,73.5-0.4c25.1,24.1,49.2,49.2,74,73.6c45.8,45,92.1,89.7,137.8,134.9
	c30.1,29.8,29.7,56.2-0.4,86.4c-46.8,47-65.1,46.8-112.3,0.4c-41.1-40.5-83.2-80-124.2-120.6c-12.9-12.8-22.5-11.5-34.7,0.8
	c-43.7,44.4-87.8,88.5-132.4,132.1c-11.6,11.4-11.6,20.8-0.2,31.4c4.3,4,8.6,8.2,12.5,12.6c10.5,11.7,20.3,11.6,31.7,0.4
	c23.3-23.1,47.3-45.4,71-68c23.6-22.6,51.9-23.7,75.5-1.7c26.4,24.6,52.3,49.8,77.7,75.3c20.6,20.7,20.5,50.3-0.3,72.4
	c-17.5,18.7-36.1,36.2-54.2,54.4c-11,11.1-22.6,21.4-28.4,37c-4.2,11.2-14.4,17.4-26.9,15.5c-11.7-1.8-21-7.7-23.5-20.5
	c-2.6-13.7,0.9-25.5,13.9-31.7c37.5-17.7,59-53.1,88.9-79.2c7.9-6.9,7.4-14.7-0.1-22.1c-23.8-23.6-47.4-47.2-71.2-70.7
	c-9.6-9.5-18.4-6.9-27.3,1.7c-23.5,22.8-47.5,45.2-71.1,67.9c-23.6,22.8-50.2,24.2-75.5,3.3c-6.6-5.4-12.4-11.7-18.4-17.7
	c-30.4-30.8-30.5-57.8-0.1-88.2c44.5-44.6,89.1-89.1,133.8-133.5c28.5-28.3,55.3-28.4,84-0.7c45.3,43.7,90.5,87.6,135.7,131.4
	c19.2,18.6,21.4,18.3,44.1-4.6c19.3-19.5,19.6-22.3,0.5-41.2C661.2,487.7,594.1,422.2,527.6,356c-11.3-11.2-20.3-12-31.5-1
	c-30.8,30.4-62,60.4-93,90.6c-40.9,39.8-81.8,79.6-122.8,119.2c-22.6,21.8-50.9,22.5-74,1.7c-48.8-43.8-60.8-67-4.3-121.1
	C290,361,375.2,273.6,461.6,187.4c30.9-30.8,57.6-30.8,88.5-0.9c21.2,20.5,42.9,40.5,64.2,60.9c8.6,8.3,14.6,13.5,19.2-3.8
	c5-18.6,18.8-29.5,38.1-32.5c7.8-1.2,15.6-2.4,23.4-2.7c54.7-1.5,73.9,17.2,74,71.9c0.1,32.8,0.4,65.6-0.2,98.4
	c-0.2,13.4,3.2,24.2,13.6,33.1c21.2,18.1,36.6,42.7,64.2,53.9C857.6,470.3,861.4,482.3,858.8,494.4z"/>
</svg>
